<svg xmlns="http://www.w3.org/2000/svg" xmlns:xlink="http://www.w3.org/1999/xlink" viewBox="0 0 600 600"><defs><linearGradient id="b541c8dd-f1f0-433f-90ca-688b5868639d" x1="52.72" y1="52.72" x2="547.28" y2="547.28" gradientUnits="userSpaceOnUse"><stop offset="0" stop-color="#f9ce34"/><stop offset="0.5" stop-color="#ee2a7b"/><stop offset="1" stop-color="#6228d7"/></linearGradient></defs><g id="b466320b-ab03-4d74-9e08-c30a233e4430" data-name="Layer 2"><g id="ff536643-a02d-4909-b492-cf481c419f87" data-name="Layer 1"><g id="f704e4bf-42c6-47a8-a9da-044159b455cf" data-name="Instagram Download"><rect width="600" height="600" rx="180" style="fill:url(#b541c8dd-f1f0-433f-90ca-688b5868639d)"/><path d="M315.05,565a20.38,20.38,0,0,1-28.78,1.29q-.67-.62-1.29-1.29L176.34,446.15a20.37,20.37,0,0,1,30.07-27.49l73.22,80.12V298.15a20.37,20.37,0,0,1,40.74,0v200.6l73.25-80.12a20.38,20.38,0,0,1,30.07,27.52Z" style="fill:#fff"/><path d="M300,177.78a122.23,122.23,0,0,0-40.37,237.6V370.76a81.48,81.48,0,1,1,80.74,0v44.62A122.23,122.23,0,0,0,300,177.78Z" style="fill:#fff"/><path d="M422.22,35.19H177.78A142.76,142.76,0,0,0,35.19,177.78V422.22A142.76,142.76,0,0,0,177.78,564.81h80l-37.25-40.74h-42.7A101.85,101.85,0,0,1,75.93,422.22V177.78A101.85,101.85,0,0,1,177.78,75.93H422.22A101.85,101.85,0,0,1,524.07,177.78V422.22A101.85,101.85,0,0,1,422.22,524.07H379.54l-37.25,40.74h79.93A142.76,142.76,0,0,0,564.81,422.22V177.78A142.76,142.76,0,0,0,422.22,35.19Z" style="fill:#fff"/><circle cx="432.4" cy="167.6" r="30.55" transform="translate(8.14 354.84) rotate(-45)" style="fill:#fff"/></g></g></g></svg>